<?xml version="1.0" encoding="utf-8"?>
<!-- Generator: Adobe Illustrator 16.0.0, SVG Export Plug-In . SVG Version: 6.00 Build 0)  -->
<!DOCTYPE svg PUBLIC "-//W3C//DTD SVG 1.1//EN" "http://www.w3.org/Graphics/SVG/1.1/DTD/svg11.dtd">
<svg version="1.1" id="Layer_1" xmlns="http://www.w3.org/2000/svg" xmlns:xlink="http://www.w3.org/1999/xlink" x="0px" y="0px"
	 width="311.8px" height="103.9px" viewBox="0 0 311.8 103.9" enable-background="new 0 0 311.8 103.9" xml:space="preserve">
<path d="M33.6,43.6c-0.3,1.2-0.8,2.1-1.5,2.9c-0.7,0.8-1.6,1.4-2.7,1.8c-1.1,0.4-2.4,0.6-4,0.6c-1,0-1.9-0.1-2.9-0.3
	c-0.9-0.2-1.8-0.6-2.5-1.1c-0.7-0.5-1.4-1.1-1.8-1.8c-0.5-0.7-0.8-1.6-0.8-2.7h2.4c0.1,0.7,0.4,1.3,0.7,1.8c0.4,0.5,0.8,0.9,1.3,1.2
	c0.5,0.3,1.1,0.5,1.7,0.7c0.6,0.1,1.3,0.2,1.9,0.2c2.2,0,3.8-0.6,4.8-1.9s1.5-3.1,1.5-5.4v-2.6h-0.1c-0.6,1.2-1.4,2.2-2.4,2.9
	c-1.1,0.7-2.3,1.1-3.7,1.1c-1.6,0-2.9-0.3-4-0.8c-1.1-0.5-2-1.2-2.7-2.1c-0.7-0.9-1.2-2-1.6-3.2c-0.3-1.2-0.5-2.5-0.5-3.9
	c0-1.3,0.2-2.6,0.6-3.8c0.4-1.2,1-2.2,1.7-3.1c0.7-0.9,1.7-1.6,2.8-2.1c1.1-0.5,2.3-0.8,3.7-0.8c0.7,0,1.4,0.1,2.1,0.3
	c0.6,0.2,1.2,0.5,1.8,0.8c0.5,0.4,1,0.8,1.4,1.3c0.4,0.5,0.7,1,1,1.5h0.1v-3.4h2.4v17.9C34.1,41.2,33.9,42.5,33.6,43.6z M28.2,38.5
	c0.8-0.4,1.4-1,2-1.7s0.9-1.5,1.2-2.5c0.3-0.9,0.4-1.9,0.4-2.9c0-1-0.1-1.9-0.3-2.9c-0.2-1-0.6-1.8-1.1-2.6
	c-0.5-0.8-1.1-1.4-1.9-1.9c-0.8-0.5-1.8-0.7-2.9-0.7c-1.1,0-2.1,0.2-2.9,0.7c-0.8,0.5-1.5,1.1-2,1.8s-0.9,1.6-1.1,2.6
	c-0.2,1-0.4,2-0.4,3c0,1,0.1,1.9,0.4,2.9c0.3,0.9,0.6,1.8,1.2,2.5c0.5,0.7,1.2,1.3,2,1.7c0.8,0.4,1.8,0.7,2.9,0.7
	C26.5,39.1,27.4,38.9,28.2,38.5z"/>
<path d="M41,14.4v26.9h-2.4V14.4H41z"/>
<path d="M46.1,24.9c0.4-0.8,0.9-1.5,1.6-2c0.7-0.5,1.5-0.9,2.4-1.2c0.9-0.3,2-0.4,3.1-0.4c0.9,0,1.7,0.1,2.6,0.2
	c0.9,0.2,1.6,0.5,2.3,0.9c0.7,0.5,1.2,1.1,1.7,1.9c0.4,0.8,0.6,1.9,0.6,3.2v10.3c0,1,0.5,1.4,1.4,1.4c0.3,0,0.5,0,0.8-0.2v2
	c-0.3,0.1-0.5,0.1-0.7,0.1c-0.2,0-0.5,0-0.8,0c-0.6,0-1.1-0.1-1.5-0.2c-0.4-0.2-0.6-0.4-0.8-0.7c-0.2-0.3-0.3-0.7-0.4-1.1
	c-0.1-0.4-0.1-0.9-0.1-1.4h-0.1c-0.4,0.6-0.9,1.2-1.3,1.7s-0.9,0.9-1.5,1.2c-0.5,0.3-1.2,0.6-1.8,0.8c-0.7,0.2-1.5,0.3-2.5,0.3
	c-0.9,0-1.8-0.1-2.5-0.3c-0.8-0.2-1.5-0.6-2.1-1c-0.6-0.5-1.1-1.1-1.4-1.8c-0.3-0.7-0.5-1.6-0.5-2.5c0-1.4,0.3-2.4,0.9-3.2
	c0.6-0.8,1.4-1.4,2.4-1.8c1-0.4,2.1-0.7,3.4-0.8c1.2-0.2,2.5-0.3,3.8-0.5c0.5,0,0.9-0.1,1.3-0.2c0.4-0.1,0.7-0.2,0.9-0.4
	c0.3-0.2,0.4-0.4,0.6-0.8c0.1-0.3,0.2-0.8,0.2-1.3c0-0.8-0.1-1.5-0.4-2c-0.3-0.5-0.6-0.9-1.1-1.2c-0.5-0.3-1-0.5-1.6-0.6
	c-0.6-0.1-1.3-0.2-2-0.2c-1.5,0-2.7,0.4-3.7,1.1c-1,0.7-1.5,1.9-1.5,3.4h-2.4C45.4,26.7,45.7,25.7,46.1,24.9z M57.9,30.7
	c-0.2,0.3-0.4,0.5-0.9,0.6c-0.4,0.1-0.8,0.2-1.1,0.3c-1,0.2-2,0.3-3.1,0.5c-1.1,0.1-2,0.3-2.9,0.6c-0.9,0.3-1.6,0.7-2.2,1.2
	c-0.6,0.5-0.8,1.2-0.8,2.2c0,0.6,0.1,1.1,0.4,1.6c0.2,0.5,0.6,0.9,1,1.2c0.4,0.3,0.9,0.6,1.4,0.8c0.5,0.2,1.1,0.3,1.6,0.3
	c0.9,0,1.8-0.1,2.6-0.4c0.8-0.3,1.6-0.7,2.2-1.2c0.6-0.5,1.1-1.2,1.5-1.9c0.4-0.8,0.5-1.6,0.5-2.6L57.9,30.7L57.9,30.7z"/>
<path d="M67.5,14.4v3.8h-2.4v-3.8H67.5z M67.5,21.9v19.4h-2.4V21.9H67.5z"/>
<path d="M83.3,25.7c-0.3-0.5-0.6-1-1.1-1.3c-0.5-0.4-1-0.6-1.6-0.8c-0.6-0.2-1.2-0.2-1.9-0.2c-0.5,0-1.1,0.1-1.6,0.2
	c-0.5,0.1-1,0.3-1.5,0.6c-0.5,0.3-0.8,0.6-1.1,1c-0.3,0.4-0.4,1-0.4,1.6c0,0.5,0.1,1,0.4,1.3c0.3,0.4,0.6,0.7,1,0.9
	c0.4,0.3,0.8,0.5,1.3,0.6c0.5,0.2,0.9,0.3,1.3,0.4l3.2,0.7c0.7,0.1,1.3,0.3,2,0.5c0.7,0.3,1.3,0.6,1.8,1c0.5,0.4,0.9,1,1.3,1.6
	c0.3,0.6,0.5,1.4,0.5,2.2c0,1.1-0.2,2-0.7,2.7c-0.5,0.7-1.1,1.3-1.8,1.8c-0.7,0.5-1.6,0.8-2.5,1c-0.9,0.2-1.8,0.3-2.8,0.3
	c-2.3,0-4.1-0.5-5.6-1.6C72,39.2,71.2,37.4,71,35h2.4c0.1,1.6,0.7,2.8,1.8,3.6c1.1,0.8,2.4,1.2,4,1.2c0.6,0,1.2-0.1,1.8-0.2
	c0.6-0.1,1.2-0.3,1.7-0.6c0.5-0.3,1-0.7,1.3-1.1c0.3-0.5,0.5-1,0.5-1.7c0-0.6-0.1-1.1-0.4-1.5c-0.2-0.4-0.6-0.7-1-1
	c-0.4-0.3-0.9-0.5-1.4-0.7c-0.5-0.2-1-0.3-1.6-0.5L77.1,32c-0.8-0.2-1.5-0.4-2.1-0.7c-0.7-0.3-1.2-0.6-1.7-1
	c-0.5-0.4-0.9-0.9-1.1-1.4c-0.3-0.6-0.4-1.3-0.4-2.1c0-1,0.2-1.8,0.7-2.5s1-1.3,1.7-1.7c0.7-0.4,1.5-0.7,2.4-0.9
	c0.9-0.2,1.7-0.3,2.6-0.3c1,0,1.9,0.1,2.7,0.4c0.8,0.3,1.6,0.6,2.2,1.2c0.6,0.5,1.1,1.2,1.5,2c0.4,0.8,0.6,1.7,0.6,2.8h-2.4
	C83.7,26.9,83.6,26.2,83.3,25.7z"/>
<path d="M97.9,21.9v2h-4V37c0,0.8,0.1,1.4,0.3,1.8s0.7,0.7,1.6,0.7c0.7,0,1.4,0,2-0.1v2c-0.4,0-0.7,0-1.1,0c-0.4,0-0.7,0-1.1,0
	c-1.6,0-2.7-0.3-3.3-0.9c-0.6-0.6-0.9-1.8-0.9-3.4V23.9h-3.4v-2h3.4v-5.8H94v5.8H97.9z"/>
<path d="M103.1,34.9c0.2,0.9,0.6,1.7,1.1,2.5c0.5,0.7,1.2,1.3,2,1.8c0.8,0.5,1.8,0.7,2.9,0.7c1.7,0,3.1-0.5,4.1-1.4
	c1-0.9,1.7-2.1,2-3.6h2.4c-0.5,2.2-1.4,3.9-2.8,5.1c-1.3,1.2-3.2,1.8-5.7,1.8c-1.5,0-2.9-0.3-4-0.8c-1.1-0.5-2-1.3-2.7-2.2
	c-0.7-0.9-1.2-2-1.6-3.3c-0.3-1.2-0.5-2.6-0.5-3.9c0-1.3,0.2-2.5,0.5-3.8c0.3-1.2,0.9-2.3,1.6-3.3c0.7-1,1.6-1.7,2.7-2.3
	c1.1-0.6,2.4-0.9,4-0.9c1.6,0,2.9,0.3,4,0.9c1.1,0.6,2,1.5,2.7,2.5c0.7,1,1.2,2.2,1.5,3.5c0.3,1.3,0.4,2.7,0.4,4h-15
	C102.8,33.1,102.9,34,103.1,34.9z M114.9,27.7c-0.3-0.8-0.7-1.6-1.2-2.2s-1.2-1.2-1.9-1.5c-0.8-0.4-1.6-0.6-2.6-0.6
	c-1,0-1.8,0.2-2.6,0.6c-0.8,0.4-1.4,0.9-1.9,1.5s-0.9,1.4-1.3,2.2c-0.3,0.8-0.5,1.7-0.6,2.6h12.6C115.3,29.4,115.2,28.5,114.9,27.7z
	"/>
<path d="M123.1,21.9v4.6h0.1c0.6-1.6,1.5-2.8,2.8-3.7c1.3-0.9,2.8-1.2,4.5-1.2V24c-1.1-0.1-2.1,0.1-2.9,0.4
	c-0.9,0.3-1.6,0.8-2.3,1.5c-0.6,0.6-1.1,1.4-1.5,2.2c-0.4,0.9-0.5,1.8-0.5,2.8v10.4h-2.4V21.9H123.1z"/>
<path d="M146.2,11.7v37.6h-2V11.7H146.2z"/>
<path d="M154.6,11.7v37.6h-2V11.7H154.6z"/>
<path d="M186.4,43.6c-0.3,1.2-0.8,2.1-1.5,2.9c-0.7,0.8-1.6,1.4-2.7,1.8c-1.1,0.4-2.4,0.6-4,0.6c-1,0-1.9-0.1-2.9-0.3
	c-0.9-0.2-1.8-0.6-2.5-1.1c-0.7-0.5-1.4-1.1-1.8-1.8c-0.5-0.7-0.8-1.6-0.8-2.7h2.4c0.1,0.7,0.4,1.3,0.7,1.8s0.8,0.9,1.3,1.2
	c0.5,0.3,1.1,0.5,1.7,0.7c0.6,0.1,1.3,0.2,1.9,0.2c2.2,0,3.8-0.6,4.8-1.9s1.5-3.1,1.5-5.4v-2.6h-0.1c-0.6,1.2-1.4,2.2-2.4,2.9
	c-1.1,0.7-2.3,1.1-3.7,1.1c-1.6,0-2.9-0.3-4-0.8c-1.1-0.5-2-1.2-2.7-2.1c-0.7-0.9-1.2-2-1.6-3.2c-0.3-1.2-0.5-2.5-0.5-3.9
	c0-1.3,0.2-2.6,0.6-3.8c0.4-1.2,1-2.2,1.7-3.1c0.7-0.9,1.7-1.6,2.8-2.1c1.1-0.5,2.3-0.8,3.7-0.8c0.7,0,1.4,0.1,2.1,0.3
	c0.6,0.2,1.2,0.5,1.8,0.8c0.5,0.4,1,0.8,1.4,1.3c0.4,0.5,0.7,1,1,1.5h0.1v-3.4h2.4v17.9C186.9,41.2,186.7,42.5,186.4,43.6z
	 M181,38.5c0.8-0.4,1.4-1,2-1.7s0.9-1.5,1.2-2.5c0.3-0.9,0.4-1.9,0.4-2.9c0-1-0.1-1.9-0.3-2.9c-0.2-1-0.6-1.8-1.1-2.6
	c-0.5-0.8-1.1-1.4-1.9-1.9c-0.8-0.5-1.8-0.7-2.9-0.7c-1.1,0-2.1,0.2-2.9,0.7c-0.8,0.5-1.5,1.1-2,1.8c-0.5,0.8-0.9,1.6-1.1,2.6
	c-0.2,1-0.4,2-0.4,3c0,1,0.1,1.9,0.4,2.9c0.3,0.9,0.6,1.8,1.2,2.5s1.2,1.3,2,1.7c0.8,0.4,1.8,0.7,2.9,0.7
	C179.3,39.1,180.2,38.9,181,38.5z"/>
<path d="M191.9,24.9c0.4-0.8,0.9-1.5,1.6-2c0.7-0.5,1.5-0.9,2.4-1.2c0.9-0.3,2-0.4,3.1-0.4c0.9,0,1.7,0.1,2.6,0.2
	c0.9,0.2,1.6,0.5,2.3,0.9c0.7,0.5,1.2,1.1,1.7,1.9c0.4,0.8,0.6,1.9,0.6,3.2v10.3c0,1,0.5,1.4,1.4,1.4c0.3,0,0.5,0,0.8-0.2v2
	c-0.3,0.1-0.5,0.1-0.7,0.1c-0.2,0-0.5,0-0.8,0c-0.6,0-1.1-0.1-1.5-0.2c-0.4-0.2-0.6-0.4-0.8-0.7c-0.2-0.3-0.3-0.7-0.4-1.1
	c-0.1-0.4-0.1-0.9-0.1-1.4h-0.1c-0.4,0.6-0.9,1.2-1.3,1.7c-0.4,0.5-0.9,0.9-1.5,1.2c-0.5,0.3-1.2,0.6-1.8,0.8
	c-0.7,0.2-1.5,0.3-2.5,0.3c-0.9,0-1.8-0.1-2.5-0.3c-0.8-0.2-1.5-0.6-2.1-1s-1.1-1.1-1.4-1.8s-0.5-1.6-0.5-2.5c0-1.4,0.3-2.4,0.9-3.2
	s1.4-1.4,2.4-1.8c1-0.4,2.1-0.7,3.4-0.8c1.2-0.2,2.5-0.3,3.8-0.5c0.5,0,0.9-0.1,1.3-0.2c0.4-0.1,0.7-0.2,0.9-0.4
	c0.3-0.2,0.4-0.4,0.6-0.8c0.1-0.3,0.2-0.8,0.2-1.3c0-0.8-0.1-1.5-0.4-2c-0.3-0.5-0.6-0.9-1.1-1.2s-1-0.5-1.6-0.6
	c-0.6-0.1-1.3-0.2-2-0.2c-1.5,0-2.7,0.4-3.7,1.1s-1.5,1.9-1.5,3.4h-2.4C191.3,26.7,191.5,25.7,191.9,24.9z M203.8,30.7
	c-0.2,0.3-0.4,0.5-0.9,0.6c-0.4,0.1-0.8,0.2-1.1,0.3c-1,0.2-2,0.3-3.1,0.5s-2,0.3-2.9,0.6c-0.9,0.3-1.6,0.7-2.2,1.2
	c-0.6,0.5-0.8,1.2-0.8,2.2c0,0.6,0.1,1.1,0.4,1.6c0.2,0.5,0.6,0.9,1,1.2c0.4,0.3,0.9,0.6,1.4,0.8c0.5,0.2,1.1,0.3,1.6,0.3
	c0.9,0,1.8-0.1,2.6-0.4c0.8-0.3,1.5-0.7,2.2-1.2c0.6-0.5,1.1-1.2,1.5-1.9c0.4-0.8,0.5-1.6,0.5-2.6L203.8,30.7L203.8,30.7z"/>
<path d="M224.5,41.3v-3.5h-0.1c-0.6,1.3-1.5,2.3-2.7,3c-1.2,0.7-2.5,1-4,1c-1.2,0-2.3-0.2-3.1-0.5s-1.6-0.8-2.1-1.5
	c-0.5-0.6-0.9-1.4-1.2-2.3s-0.4-1.9-0.4-3.1V21.9h2.4v12.7c0,1.8,0.5,3.1,1.2,4c0.8,0.9,2.1,1.4,4,1.4c1,0,1.9-0.2,2.6-0.7
	c0.7-0.4,1.3-1,1.8-1.8c0.5-0.7,0.8-1.6,1.1-2.5s0.3-1.9,0.3-2.9V21.9h2.4v19.4H224.5z"/>
<path d="M243.1,24.6c-0.9-0.8-2.1-1.2-3.7-1.2c-1.1,0-2.1,0.2-3,0.7c-0.9,0.5-1.6,1.1-2.1,1.9c-0.6,0.8-1,1.7-1.3,2.7
	c-0.3,1-0.4,2-0.4,3c0,1,0.1,2,0.4,3c0.3,1,0.7,1.9,1.3,2.7c0.6,0.8,1.3,1.4,2.1,1.9s1.8,0.7,3,0.7c0.7,0,1.4-0.1,2.1-0.4
	c0.7-0.3,1.2-0.7,1.7-1.1c0.5-0.5,0.9-1.1,1.2-1.8s0.5-1.4,0.6-2.2h2.4c-0.3,2.4-1.2,4.2-2.6,5.5c-1.4,1.3-3.2,2-5.4,2
	c-1.5,0-2.8-0.3-3.9-0.8c-1.1-0.5-2.1-1.3-2.9-2.2c-0.8-0.9-1.4-2-1.8-3.3s-0.6-2.6-0.6-4c0-1.4,0.2-2.7,0.6-4s1-2.3,1.8-3.3
	c0.8-0.9,1.7-1.7,2.9-2.2c1.1-0.6,2.5-0.8,3.9-0.8c2.1,0,3.8,0.6,5.3,1.7c1.4,1.1,2.3,2.8,2.6,5h-2.4
	C244.6,26.5,244,25.4,243.1,24.6z"/>
<path d="M253.1,14.4v10.8h0.1c0.5-1.2,1.3-2.1,2.4-2.8c1.2-0.7,2.4-1.1,3.8-1.1c1.4,0,2.5,0.2,3.4,0.5c0.9,0.4,1.7,0.8,2.2,1.5
	c0.6,0.6,0.9,1.4,1.2,2.4c0.2,0.9,0.3,2,0.3,3.1v12.5h-2.4V29.2c0-0.8-0.1-1.6-0.2-2.3c-0.2-0.7-0.4-1.3-0.8-1.9
	c-0.4-0.5-0.9-0.9-1.5-1.2s-1.4-0.5-2.4-0.5s-1.8,0.2-2.5,0.5c-0.7,0.3-1.4,0.8-1.9,1.4c-0.5,0.6-0.9,1.3-1.2,2.1
	c-0.3,0.8-0.4,1.7-0.5,2.7v11.3h-2.4V14.4H253.1z"/>
<path d="M272.7,34.9c0.2,0.9,0.6,1.7,1.1,2.5c0.5,0.7,1.2,1.3,2,1.8s1.8,0.7,2.9,0.7c1.7,0,3.1-0.5,4.1-1.4s1.7-2.1,2-3.6h2.4
	c-0.5,2.2-1.4,3.9-2.8,5.1c-1.3,1.2-3.2,1.8-5.7,1.8c-1.5,0-2.9-0.3-4-0.8c-1.1-0.5-2-1.3-2.7-2.2c-0.7-0.9-1.2-2-1.6-3.3
	c-0.3-1.2-0.5-2.6-0.5-3.9c0-1.3,0.2-2.5,0.5-3.8c0.3-1.2,0.9-2.3,1.6-3.3c0.7-1,1.6-1.7,2.7-2.3c1.1-0.6,2.4-0.9,4-0.9
	c1.6,0,2.9,0.3,4,0.9s2,1.5,2.7,2.5s1.2,2.2,1.5,3.5c0.3,1.3,0.4,2.7,0.4,4h-15C272.4,33.1,272.5,34,272.7,34.9z M284.5,27.7
	c-0.3-0.8-0.7-1.6-1.2-2.2s-1.2-1.2-1.9-1.5c-0.8-0.4-1.6-0.6-2.6-0.6c-1,0-1.8,0.2-2.6,0.6c-0.8,0.4-1.4,0.9-1.9,1.5
	s-0.9,1.4-1.3,2.2c-0.3,0.8-0.5,1.7-0.6,2.6h12.6C284.9,29.4,284.8,28.5,284.5,27.7z"/>
<path d="M292.7,21.9v4.6h0.1c0.6-1.6,1.5-2.8,2.8-3.7c1.3-0.9,2.8-1.2,4.5-1.2V24c-1.1-0.1-2.1,0.1-2.9,0.4
	c-0.9,0.3-1.6,0.8-2.3,1.5c-0.6,0.6-1.1,1.4-1.5,2.2c-0.4,0.9-0.5,1.8-0.5,2.8v10.4h-2.4V21.9H292.7z"/>
<path d="M17.3,72c0-1.2,0.2-2.2,0.6-3c0.4-0.8,0.9-1.4,1.5-1.9c0.6-0.5,1.4-0.8,2.3-1.1c0.9-0.2,1.8-0.3,2.8-0.3
	c1.6,0,2.8,0.2,3.8,0.5c1,0.3,1.7,0.7,2.2,1.3s0.9,1.2,1.1,2c0.2,0.8,0.3,1.6,0.3,2.5v10.7c0,1,0,1.7,0.1,2.2
	c0.1,0.5,0.3,1.1,0.5,1.7h-5c-0.2-0.3-0.3-0.7-0.4-1c-0.1-0.4-0.2-0.7-0.2-1.1h-0.1c-0.6,1.1-1.3,1.7-2.1,2.1
	c-0.8,0.3-1.8,0.5-3.1,0.5c-0.9,0-1.7-0.2-2.3-0.5c-0.6-0.3-1.1-0.7-1.5-1.3c-0.4-0.6-0.7-1.2-0.8-1.9s-0.3-1.4-0.3-2.1
	c0-1,0.1-1.8,0.3-2.5c0.2-0.7,0.5-1.3,0.9-1.8c0.4-0.5,0.9-0.9,1.6-1.2c0.6-0.3,1.4-0.6,2.3-0.9l2.9-0.8c0.8-0.2,1.3-0.5,1.6-0.8
	c0.3-0.4,0.5-0.9,0.5-1.5c0-0.8-0.2-1.4-0.5-1.8c-0.4-0.4-1-0.7-1.9-0.7c-0.8,0-1.4,0.2-1.8,0.7c-0.4,0.5-0.6,1.1-0.6,1.9v0.6h-4.7
	V72z M25.7,77.1c-0.4,0.2-0.8,0.3-1.1,0.4c-1.1,0.2-1.8,0.6-2.3,1.1c-0.5,0.5-0.7,1.2-0.7,2.1c0,0.8,0.2,1.4,0.5,2
	c0.3,0.6,0.8,0.8,1.5,0.8c0.4,0,0.7-0.1,1.1-0.2c0.4-0.1,0.7-0.3,1-0.5s0.6-0.6,0.8-1c0.2-0.4,0.3-0.9,0.3-1.4v-4
	C26.5,76.7,26.1,76.9,25.7,77.1z"/>
<path d="M55.4,66.3V69h0.1c0.5-1,1.2-1.8,1.9-2.4s1.7-0.9,2.8-0.9c0.2,0,0.3,0,0.5,0c0.2,0,0.3,0,0.5,0.1v5c-0.3,0-0.5,0-0.8-0.1
	c-0.3,0-0.5,0-0.8,0c-0.5,0-0.9,0.1-1.4,0.2c-0.5,0.1-0.9,0.3-1.2,0.6c-0.4,0.3-0.7,0.7-0.9,1.1c-0.2,0.5-0.3,1-0.3,1.7v12.2h-5.2
	V66.3H55.4z"/>
<path d="M89.6,72.1c-0.1-0.5-0.2-0.9-0.3-1.3c-0.2-0.4-0.4-0.7-0.7-0.9c-0.3-0.2-0.7-0.4-1.2-0.4c-0.6,0-1.1,0.1-1.5,0.4
	c-0.4,0.3-0.7,0.7-0.9,1.3c-0.2,0.6-0.3,1.3-0.4,2.1c-0.1,0.9-0.1,1.9-0.1,3.1c0,1.3,0,2.3,0.1,3.2c0.1,0.9,0.2,1.6,0.4,2.2
	c0.2,0.6,0.5,1,0.8,1.3c0.4,0.3,0.8,0.4,1.4,0.4c0.9,0,1.5-0.4,1.9-1.1c0.4-0.8,0.6-2,0.6-3.6h5c0,2.7-0.6,4.7-1.8,6.1
	C91.7,86.3,89.7,87,87,87c-1.3,0-2.4-0.2-3.4-0.5c-1-0.3-1.8-0.9-2.4-1.7c-0.6-0.8-1.1-1.9-1.5-3.3c-0.3-1.4-0.5-3.1-0.5-5.1
	c0-2.1,0.2-3.8,0.6-5.2c0.4-1.4,1-2.5,1.7-3.3c0.7-0.8,1.6-1.4,2.6-1.7c1-0.3,2.1-0.5,3.3-0.5c2.4,0,4.2,0.7,5.4,2.1
	c1.2,1.4,1.8,3.3,1.8,5.7h-5C89.7,73.1,89.7,72.6,89.6,72.1z"/>
<path d="M115.7,59.6v8.7h0.1c1-1.7,2.6-2.6,4.9-2.6c1.7,0,2.9,0.5,3.8,1.4c0.9,0.9,1.3,2.4,1.3,4.4v15h-5.2v-14
	c0-1.1-0.2-1.8-0.5-2.2c-0.4-0.4-0.9-0.6-1.7-0.6c-1.8,0-2.8,1.1-2.8,3.4v13.4h-5.2V59.6H115.7z"/>
<path d="M152,59.3v4.4h-5.2v-4.4H152z M152,66.3v20.3h-5.2V66.3H152z"/>
<path d="M180.4,60.5v5.8h3v3.5h-3v11c0,0.8,0.1,1.4,0.4,1.7s0.7,0.5,1.5,0.5c0.2,0,0.4,0,0.6,0s0.4,0,0.6-0.1v3.6
	c-0.6,0-1.1,0-1.7,0.1c-0.5,0-1.1,0.1-1.7,0.1c-1,0-1.8-0.1-2.5-0.2s-1.1-0.4-1.5-0.8c-0.3-0.4-0.6-1-0.7-1.6
	c-0.1-0.7-0.2-1.5-0.2-2.6V69.8h-2.6v-3.5h2.6v-5.8H180.4z"/>
<path d="M204.1,78.8c0,0.6,0,1.2,0.1,1.8c0.1,0.6,0.2,1.1,0.4,1.5s0.5,0.8,0.8,1.1c0.3,0.3,0.7,0.4,1.2,0.4c0.9,0,1.5-0.3,1.9-0.9
	c0.4-0.6,0.7-1.6,0.8-2.9h4.7c-0.1,2.4-0.7,4.2-1.9,5.4c-1.2,1.2-3,1.8-5.5,1.8c-1.9,0-3.4-0.3-4.4-0.9c-1.1-0.6-1.8-1.5-2.3-2.5
	c-0.5-1-0.8-2.2-0.9-3.5c-0.1-1.3-0.2-2.6-0.2-3.8c0-1.4,0.1-2.7,0.3-3.9s0.6-2.4,1.1-3.4s1.4-1.8,2.4-2.3c1.1-0.6,2.5-0.9,4.2-0.9
	c1.5,0,2.7,0.2,3.7,0.7c1,0.5,1.7,1.2,2.3,2.1c0.6,0.9,0.9,2,1.1,3.2c0.2,1.3,0.3,2.7,0.3,4.2v1.2h-10.3V78.8z M209.3,72.1
	c-0.1-0.6-0.2-1.1-0.4-1.5s-0.5-0.7-0.8-0.9c-0.3-0.2-0.8-0.3-1.3-0.3s-1,0.1-1.3,0.4c-0.3,0.2-0.6,0.6-0.8,0.9
	c-0.2,0.4-0.3,0.8-0.4,1.3c-0.1,0.5-0.1,1-0.1,1.4v0.8h5.3C209.4,73.3,209.4,72.6,209.3,72.1z"/>
<path d="M238,72.1c-0.1-0.5-0.2-0.9-0.3-1.3c-0.2-0.4-0.4-0.7-0.7-0.9c-0.3-0.2-0.7-0.4-1.2-0.4c-0.6,0-1.1,0.1-1.5,0.4
	c-0.4,0.3-0.7,0.7-0.9,1.3c-0.2,0.6-0.3,1.3-0.4,2.1c-0.1,0.9-0.1,1.9-0.1,3.1c0,1.3,0,2.3,0.1,3.2s0.2,1.6,0.4,2.2s0.5,1,0.8,1.3
	s0.8,0.4,1.4,0.4c0.9,0,1.5-0.4,1.9-1.1c0.4-0.8,0.6-2,0.6-3.6h5c0,2.7-0.6,4.7-1.8,6.1c-1.2,1.4-3.2,2.1-5.9,2.1
	c-1.3,0-2.4-0.2-3.4-0.5c-1-0.3-1.8-0.9-2.4-1.7c-0.6-0.8-1.1-1.9-1.5-3.3c-0.3-1.4-0.5-3.1-0.5-5.1c0-2.1,0.2-3.8,0.6-5.2
	c0.4-1.4,1-2.5,1.7-3.3s1.6-1.4,2.6-1.7c1-0.3,2.1-0.5,3.3-0.5c2.4,0,4.2,0.7,5.4,2.1c1.2,1.4,1.8,3.3,1.8,5.7h-5
	C238.1,73.1,238.1,72.6,238,72.1z"/>
<path d="M266.4,60.5v5.8h3v3.5h-3v11c0,0.8,0.1,1.4,0.4,1.7c0.2,0.3,0.7,0.5,1.5,0.5c0.2,0,0.4,0,0.6,0c0.2,0,0.4,0,0.6-0.1v3.6
	c-0.6,0-1.1,0-1.7,0.1c-0.5,0-1.1,0.1-1.7,0.1c-1,0-1.8-0.1-2.5-0.2c-0.6-0.1-1.1-0.4-1.5-0.8c-0.3-0.4-0.6-1-0.7-1.6
	s-0.2-1.5-0.2-2.6V69.8h-2.6v-3.5h2.6v-5.8H266.4z"/>
<path d="M289.8,80.6c0,0.9,0.2,1.6,0.7,2.1s1.1,0.8,2,0.8c0.8,0,1.4-0.2,1.9-0.6c0.5-0.4,0.7-1,0.7-1.8c0-0.7-0.2-1.1-0.6-1.5
	s-0.8-0.6-1.3-0.8l-3.7-1.3c-1.4-0.5-2.5-1.2-3.2-2.1s-1.1-2.1-1.1-3.5c0-0.8,0.1-1.6,0.4-2.4c0.3-0.7,0.7-1.4,1.3-1.9
	s1.4-1,2.3-1.3c0.9-0.3,2.1-0.5,3.4-0.5c2.4,0,4.1,0.5,5.2,1.5c1.1,1,1.7,2.4,1.7,4.3v0.8H295c0-1.1-0.2-1.8-0.5-2.3
	c-0.3-0.5-0.9-0.7-1.8-0.7c-0.7,0-1.2,0.2-1.7,0.5s-0.7,0.9-0.7,1.6c0,0.5,0.2,1,0.5,1.4c0.3,0.4,0.9,0.7,1.8,1l3.1,1.1
	c1.6,0.6,2.8,1.3,3.5,2.2c0.7,0.9,1,2.1,1,3.6c0,1.1-0.2,2-0.6,2.8s-0.9,1.5-1.6,2c-0.7,0.5-1.5,0.9-2.4,1.1c-0.9,0.2-1.9,0.3-3,0.3
	c-1.5,0-2.7-0.1-3.6-0.4c-1-0.3-1.7-0.7-2.3-1.2c-0.6-0.6-1-1.2-1.2-2c-0.2-0.8-0.3-1.7-0.3-2.7v-0.7h4.7V80.6z"/>
</svg>
