<?xml version="1.0" encoding="utf-8"?>
<!-- Generator: Adobe Illustrator 16.0.0, SVG Export Plug-In . SVG Version: 6.00 Build 0)  -->
<!DOCTYPE svg PUBLIC "-//W3C//DTD SVG 1.1//EN" "http://www.w3.org/Graphics/SVG/1.1/DTD/svg11.dtd">
<svg version="1.1" id="Layer_1" xmlns="http://www.w3.org/2000/svg" xmlns:xlink="http://www.w3.org/1999/xlink" x="0px" y="0px"
	 width="1700.8px" height="566.9px" viewBox="0 0 1700.8 566.9" enable-background="new 0 0 1700.8 566.9" xml:space="preserve">
<path d="M148.7,233.8c-1.8,6.5-4.6,12-8.4,16.6c-3.8,4.5-8.8,8-15,10.4c-6.2,2.4-13.7,3.6-22.6,3.6c-5.5,0-10.9-0.6-16.2-1.9
	c-5.2-1.3-10-3.3-14.1-6c-4.2-2.7-7.7-6.1-10.4-10.3c-2.8-4.2-4.4-9.2-4.8-15h13.4c0.7,4.1,2.1,7.5,4.1,10.3c2.1,2.8,4.5,5,7.4,6.7
	c2.9,1.7,6.1,2.9,9.7,3.7c3.5,0.8,7.2,1.2,10.8,1.2c12.5,0,21.5-3.5,27-10.6c5.5-7.1,8.3-17.3,8.3-30.6V197h-0.4
	c-3.1,6.8-7.7,12.3-13.7,16.4c-6,4.1-13.1,6.2-21.2,6.2c-8.8,0-16.3-1.5-22.5-4.4c-6.2-2.9-11.4-6.9-15.4-12c-4-5.1-7-11.1-8.8-18
	c-1.8-6.9-2.8-14.2-2.8-22c0-7.5,1.1-14.6,3.3-21.4c2.2-6.7,5.4-12.6,9.6-17.6c4.2-5,9.4-9,15.5-11.9c6.2-2.9,13.2-4.4,21.2-4.4
	c4.1,0,8,0.6,11.6,1.7c3.6,1.1,6.9,2.7,9.9,4.8c3,2.1,5.6,4.4,8,7.1c2.3,2.7,4.1,5.5,5.4,8.5h0.4v-18.9h13.4v100.8
	C151.3,220,150.4,227.3,148.7,233.8z M117.9,204.5c4.4-2.5,8.1-5.7,11.1-9.8c3-4,5.2-8.7,6.7-13.9c1.5-5.2,2.2-10.6,2.2-16.2
	c0-5.4-0.6-10.8-1.9-16.2c-1.3-5.4-3.3-10.3-6.2-14.7c-2.8-4.4-6.5-7.9-10.9-10.6c-4.5-2.7-9.9-4-16.3-4s-11.8,1.3-16.4,3.9
	c-4.5,2.6-8.3,6.1-11.3,10.3s-5.1,9.1-6.5,14.6c-1.3,5.5-2,11-2,16.7c0,5.5,0.7,10.9,2.1,16.2c1.4,5.2,3.6,9.9,6.6,13.9
	c3,4,6.7,7.3,11.3,9.8c4.5,2.5,9.9,3.7,16.2,3.7C108.4,208.3,113.5,207,117.9,204.5z"/>
<path d="M190.4,69v151.8H177V69H190.4z"/>
<path d="M218.9,128.1c2.3-4.7,5.3-8.5,9.2-11.5c3.9-3,8.5-5.2,13.7-6.6c5.2-1.4,11.1-2.1,17.4-2.1c4.8,0,9.6,0.5,14.5,1.4
	c4.8,0.9,9.1,2.7,13,5.2c3.8,2.6,6.9,6.1,9.4,10.7c2.4,4.6,3.6,10.6,3.6,18v58.3c0,5.4,2.6,8.1,7.9,8.1c1.6,0,3-0.3,4.3-0.9V220
	c-1.6,0.3-2.9,0.5-4.1,0.6c-1.2,0.1-2.7,0.2-4.6,0.2c-3.4,0-6.1-0.5-8.2-1.4c-2.1-0.9-3.7-2.2-4.8-3.9c-1.1-1.7-1.9-3.7-2.2-6.1
	c-0.4-2.3-0.5-4.9-0.5-7.8h-0.4c-2.4,3.5-4.9,6.7-7.3,9.5c-2.5,2.8-5.2,5.1-8.3,6.9c-3,1.8-6.5,3.3-10.4,4.3
	c-3.9,1-8.5,1.5-13.9,1.5c-5.1,0-9.9-0.6-14.4-1.8c-4.5-1.2-8.4-3.1-11.7-5.7c-3.3-2.6-6-6-7.9-10c-1.9-4-2.9-8.8-2.9-14.4
	c0-7.7,1.7-13.6,5.1-18c3.4-4.3,7.9-7.6,13.5-9.9c5.6-2.3,11.9-3.9,18.9-4.8c7-0.9,14.1-1.8,21.4-2.7c2.8-0.3,5.3-0.6,7.4-1.1
	s3.9-1.2,5.3-2.2c1.4-1.1,2.5-2.5,3.3-4.4c0.8-1.8,1.2-4.3,1.2-7.2c0-4.5-0.7-8.3-2.2-11.2c-1.5-2.9-3.5-5.2-6.2-6.9
	c-2.6-1.7-5.7-2.9-9.1-3.5c-3.5-0.6-7.2-1-11.2-1c-8.5,0-15.4,2-20.8,6.1c-5.4,4-8.2,10.5-8.5,19.5h-13.4
	C215.3,138.3,216.6,132.8,218.9,128.1z M285.9,160.9c-0.9,1.6-2.5,2.7-4.9,3.4c-2.4,0.7-4.5,1.2-6.4,1.5c-5.7,1-11.5,1.9-17.5,2.7
	c-6,0.8-11.5,1.9-16.5,3.5c-5,1.6-9,3.8-12.2,6.7c-3.2,2.9-4.8,7.1-4.8,12.4c0,3.4,0.7,6.4,2,9c1.3,2.6,3.2,4.9,5.4,6.8
	c2.3,1.9,4.9,3.4,7.9,4.4c3,1,6,1.5,9.1,1.5c5.1,0,10-0.8,14.7-2.3c4.7-1.6,8.8-3.8,12.2-6.8c3.5-3,6.2-6.6,8.3-10.8
	c2.1-4.3,3.1-9.1,3.1-14.5v-17.4H285.9z"/>
<path d="M340.1,69v21.5h-13.4V69H340.1z M340.1,111.1v109.7h-13.4V111.1H340.1z"/>
<path d="M429,132.5c-1.6-3-3.7-5.6-6.3-7.5c-2.6-2-5.6-3.4-9-4.4c-3.4-0.9-7-1.4-10.8-1.4c-3,0-6,0.3-9,1c-3,0.6-5.8,1.7-8.4,3.2
	c-2.6,1.5-4.6,3.4-6.2,5.8c-1.6,2.4-2.3,5.4-2.3,8.9c0,3,0.7,5.5,2.2,7.5c1.5,2.1,3.4,3.8,5.6,5.2c2.3,1.4,4.7,2.6,7.4,3.5
	c2.7,0.9,5.2,1.7,7.4,2.2l17.9,4c3.8,0.6,7.6,1.6,11.4,3.1c3.8,1.5,7.1,3.4,10,5.8c2.9,2.4,5.3,5.4,7.1,8.9
	c1.8,3.5,2.8,7.7,2.8,12.5c0,6-1.3,11-4,15.2c-2.7,4.2-6.1,7.6-10.3,10.2c-4.2,2.6-8.9,4.5-14.1,5.6c-5.2,1.1-10.4,1.7-15.5,1.7
	c-12.9,0-23.4-3-31.4-9.1c-8-6.1-12.6-15.9-13.7-29.3H373c0.6,9.1,3.9,15.9,9.9,20.5c6,4.6,13.5,6.9,22.4,6.9
	c3.3,0,6.6-0.4,10.1-1.1c3.5-0.7,6.7-1.9,9.7-3.6c3-1.7,5.4-3.9,7.3-6.5c1.9-2.6,2.9-5.8,2.9-9.7c0-3.3-0.7-6-2-8.2
	c-1.3-2.2-3.2-4-5.4-5.5c-2.3-1.5-4.9-2.7-7.8-3.7c-2.9-1-5.8-1.8-8.8-2.6l-17.2-3.8c-4.4-1.1-8.4-2.4-12.1-3.9
	c-3.7-1.5-6.9-3.3-9.7-5.5c-2.8-2.2-4.9-4.9-6.5-8.1c-1.6-3.2-2.3-7.1-2.3-11.8c0-5.5,1.2-10.3,3.7-14.2c2.5-4,5.7-7.2,9.7-9.6
	c4-2.4,8.4-4.2,13.3-5.3c4.9-1.1,9.7-1.7,14.6-1.7c5.5,0,10.7,0.7,15.4,2.1c4.7,1.4,8.9,3.6,12.5,6.6c3.6,3,6.5,6.7,8.6,11.1
	c2.1,4.4,3.3,9.6,3.6,15.5h-13.4C431.4,139.1,430.5,135.5,429,132.5z"/>
<path d="M511.7,111.1v11.3h-22.3v74c0,4.4,0.6,7.8,1.8,10.3c1.2,2.5,4.2,3.9,9,4.1c3.8,0,7.7-0.2,11.5-0.6v11.3c-2,0-4,0.1-6,0.2
	c-2,0.1-4,0.2-6,0.2c-8.9,0-15.2-1.7-18.7-5.2c-3.5-3.5-5.2-9.9-5.1-19.2v-75h-19.1v-11.3h19.1v-33h13.4v33H511.7z"/>
<path d="M540.9,184.6c1.3,5.2,3.5,9.8,6.5,13.9c3,4.1,6.7,7.5,11.3,10.2c4.5,2.7,10,4,16.4,4c9.8,0,17.4-2.6,23-7.7
	c5.5-5.1,9.4-11.9,11.5-20.4h13.4c-2.8,12.5-8,22.1-15.6,28.9c-7.6,6.8-18.3,10.2-32.2,10.2c-8.6,0-16.1-1.5-22.4-4.6
	c-6.3-3-11.4-7.2-15.4-12.5c-4-5.3-6.9-11.5-8.8-18.5c-1.9-7-2.9-14.4-2.9-22.2c0-7.2,1-14.3,2.9-21.3c1.9-6.9,4.9-13.1,8.8-18.6
	c4-5.5,9.1-9.8,15.4-13.2c6.3-3.3,13.8-5,22.4-5c8.8,0,16.3,1.8,22.5,5.3c6.2,3.5,11.3,8.2,15.2,13.9c3.9,5.7,6.7,12.3,8.4,19.8
	c1.7,7.4,2.4,15,2.1,22.6h-84.4C538.9,174.4,539.5,179.4,540.9,184.6z M607.2,143.6c-1.6-4.7-3.9-8.8-6.9-12.4s-6.6-6.5-10.8-8.7
	c-4.3-2.2-9.1-3.3-14.5-3.3c-5.5,0-10.4,1.1-14.7,3.3c-4.3,2.2-7.9,5.1-10.8,8.7s-5.4,7.8-7.1,12.5c-1.8,4.8-2.9,9.6-3.5,14.6h71
	C609.7,153.2,608.8,148.3,607.2,143.6z"/>
<path d="M653.7,111.1v25.7h0.4c3.4-8.9,8.7-15.8,15.8-20.6c7.2-4.8,15.7-7,25.6-6.6V123c-6.1-0.3-11.6,0.5-16.6,2.4
	c-5,1.9-9.2,4.6-12.9,8.2c-3.6,3.5-6.4,7.8-8.4,12.6c-2,4.9-3,10.2-3,16.1v58.5h-13.4V111.1H653.7z"/>
<path d="M784,53.7v212.4h-11.3V53.7H784z"/>
<path d="M831.2,53.7v212.4h-11.3V53.7H831.2z"/>
<path d="M1010.9,233.8c-1.8,6.5-4.6,12-8.4,16.6c-3.8,4.5-8.8,8-15,10.4c-6.2,2.4-13.7,3.6-22.6,3.6c-5.5,0-10.9-0.6-16.2-1.9
	c-5.2-1.3-10-3.3-14.1-6c-4.2-2.7-7.7-6.1-10.4-10.3c-2.8-4.2-4.4-9.2-4.8-15h13.4c0.7,4.1,2.1,7.5,4.1,10.3c2.1,2.8,4.5,5,7.4,6.7
	c2.9,1.7,6.1,2.9,9.7,3.7c3.5,0.8,7.2,1.2,10.8,1.2c12.5,0,21.5-3.5,27-10.6c5.5-7.1,8.3-17.3,8.3-30.6V197h-0.4
	c-3.1,6.8-7.7,12.3-13.7,16.4c-6,4.1-13.1,6.2-21.2,6.2c-8.8,0-16.3-1.5-22.5-4.4c-6.2-2.9-11.4-6.9-15.4-12c-4-5.1-7-11.1-8.8-18
	c-1.8-6.9-2.8-14.2-2.8-22c0-7.5,1.1-14.6,3.3-21.4c2.2-6.7,5.4-12.6,9.6-17.6c4.2-5,9.4-9,15.5-11.9c6.2-2.9,13.2-4.4,21.2-4.4
	c4.1,0,8,0.6,11.6,1.7c3.6,1.1,6.9,2.7,9.9,4.8c3,2.1,5.6,4.4,8,7.1c2.3,2.7,4.1,5.5,5.4,8.5h0.4v-18.9h13.4v100.8
	C1013.6,220,1012.7,227.3,1010.9,233.8z M980.2,204.5c4.4-2.5,8.1-5.7,11.1-9.8c3-4,5.2-8.7,6.7-13.9c1.5-5.2,2.2-10.6,2.2-16.2
	c0-5.4-0.6-10.8-1.9-16.2c-1.3-5.4-3.3-10.3-6.2-14.7c-2.8-4.4-6.5-7.9-10.9-10.6c-4.5-2.7-9.9-4-16.3-4c-6.4,0-11.8,1.3-16.4,3.9
	c-4.5,2.6-8.3,6.1-11.3,10.3s-5.1,9.1-6.5,14.6c-1.3,5.5-2,11-2,16.7c0,5.5,0.7,10.9,2.1,16.2c1.4,5.2,3.6,9.9,6.6,13.9
	c3,4,6.7,7.3,11.3,9.8c4.5,2.5,9.9,3.7,16.2,3.7C970.7,208.3,975.8,207,980.2,204.5z"/>
<path d="M1041.9,128.1c2.3-4.7,5.3-8.5,9.2-11.5c3.9-3,8.5-5.2,13.7-6.6c5.2-1.4,11.1-2.1,17.4-2.1c4.8,0,9.6,0.5,14.5,1.4
	c4.8,0.9,9.1,2.7,13,5.2c3.8,2.6,6.9,6.1,9.4,10.7c2.4,4.6,3.6,10.6,3.6,18v58.3c0,5.4,2.6,8.1,7.9,8.1c1.6,0,3-0.3,4.3-0.9V220
	c-1.6,0.3-2.9,0.5-4.1,0.6c-1.2,0.1-2.7,0.2-4.6,0.2c-3.4,0-6.1-0.5-8.2-1.4c-2.1-0.9-3.7-2.2-4.8-3.9c-1.1-1.7-1.9-3.7-2.2-6.1
	c-0.4-2.3-0.5-4.9-0.5-7.8h-0.4c-2.4,3.5-4.9,6.7-7.3,9.5c-2.5,2.8-5.2,5.1-8.3,6.9c-3,1.8-6.5,3.3-10.4,4.3
	c-3.9,1-8.5,1.5-13.9,1.5c-5.1,0-9.9-0.6-14.4-1.8c-4.5-1.2-8.4-3.1-11.7-5.7c-3.3-2.6-6-6-7.9-10s-2.9-8.8-2.9-14.4
	c0-7.7,1.7-13.6,5.1-18c3.4-4.3,7.9-7.6,13.5-9.9c5.6-2.3,11.9-3.9,18.9-4.8c7-0.9,14.1-1.8,21.4-2.7c2.8-0.3,5.3-0.6,7.4-1.1
	c2.1-0.4,3.9-1.2,5.3-2.2c1.4-1.1,2.5-2.5,3.3-4.4c0.8-1.8,1.2-4.3,1.2-7.2c0-4.5-0.7-8.3-2.2-11.2c-1.5-2.9-3.5-5.2-6.2-6.9
	c-2.6-1.7-5.7-2.9-9.1-3.5c-3.5-0.6-7.2-1-11.2-1c-8.5,0-15.4,2-20.8,6.1c-5.4,4-8.2,10.5-8.5,19.5h-13.4
	C1038.3,138.3,1039.6,132.8,1041.9,128.1z M1108.8,160.9c-0.8,1.6-2.5,2.7-4.9,3.4c-2.4,0.7-4.5,1.2-6.4,1.5
	c-5.7,1-11.5,1.9-17.5,2.7c-6,0.8-11.5,1.9-16.5,3.5c-5,1.6-9,3.8-12.2,6.7c-3.2,2.9-4.8,7.1-4.8,12.4c0,3.4,0.7,6.4,2,9
	c1.3,2.6,3.2,4.9,5.4,6.8c2.3,1.9,4.9,3.4,7.9,4.4c3,1,6,1.5,9.1,1.5c5.1,0,10-0.8,14.7-2.3c4.7-1.6,8.7-3.8,12.2-6.8
	c3.5-3,6.2-6.6,8.3-10.8c2.1-4.3,3.1-9.1,3.1-14.5v-17.4H1108.8z"/>
<path d="M1226,220.8V201h-0.4c-3.5,7.4-8.7,13-15.4,16.9c-6.7,3.9-14.2,5.8-22.4,5.8c-6.9,0-12.9-1-17.8-2.9
	c-4.9-1.9-8.9-4.6-11.9-8.2c-3.1-3.5-5.3-7.9-6.7-13c-1.4-5.1-2.1-10.9-2.1-17.4v-71.2h13.4v71.4c0.3,9.9,2.6,17.4,6.9,22.5
	c4.3,5.1,11.8,7.7,22.4,7.7c5.8,0,10.8-1.2,14.9-3.7c4.1-2.5,7.5-5.8,10.2-9.9c2.7-4.1,4.7-8.8,6-14.1c1.3-5.3,1.9-10.7,1.9-16.3
	v-57.6h13.4v109.7H1226z"/>
<path d="M1330.8,126.2c-5-4.7-11.9-7-20.8-7c-6.4,0-12,1.3-16.8,4c-4.8,2.7-8.8,6.2-12,10.6c-3.2,4.4-5.6,9.4-7.2,15
	c-1.6,5.6-2.4,11.3-2.4,17.1c0,5.8,0.8,11.5,2.4,17.1c1.6,5.6,4,10.6,7.2,15c3.2,4.4,7.2,7.9,12,10.6c4.8,2.7,10.4,4,16.8,4
	c4.1,0,8-0.8,11.7-2.3c3.7-1.6,6.9-3.7,9.8-6.5c2.8-2.8,5.2-6.1,7-9.9c1.8-3.8,3-8,3.4-12.5h13.4c-1.8,13.3-6.7,23.7-14.7,31.1
	c-7.9,7.4-18.1,11.2-30.6,11.2c-8.4,0-15.8-1.5-22.2-4.6c-6.5-3-11.9-7.2-16.3-12.4c-4.4-5.2-7.7-11.4-10-18.4
	c-2.3-7-3.4-14.5-3.4-22.4c0-7.9,1.1-15.4,3.4-22.4c2.3-7,5.6-13.1,10-18.4c4.4-5.2,9.8-9.4,16.3-12.5c6.4-3.1,13.9-4.7,22.2-4.7
	c11.8,0,21.7,3.1,29.9,9.4c8.1,6.2,13,15.7,14.6,28.3H1341C1339.1,137.3,1335.7,130.9,1330.8,126.2z"/>
<path d="M1387.1,69v61h0.4c2.6-6.7,7.1-12,13.6-16.1c6.5-4,13.7-6.1,21.5-6.1c7.7,0,14.1,1,19.2,3c5.2,2,9.3,4.8,12.4,8.4
	c3.1,3.6,5.3,8,6.6,13.3c1.3,5.2,1.9,11.1,1.9,17.6v70.6h-13.4v-68.5c0-4.7-0.4-9-1.3-13.1c-0.9-4-2.3-7.5-4.5-10.5
	c-2.1-3-5-5.3-8.6-7c-3.6-1.7-8.1-2.6-13.5-2.6c-5.4,0-10.2,1-14.3,2.9c-4.2,1.9-7.7,4.5-10.6,7.9c-2.9,3.3-5.2,7.3-6.8,11.9
	c-1.6,4.6-2.5,9.6-2.7,15v64h-13.4V69H1387.1z"/>
<path d="M1498,184.6c1.3,5.2,3.5,9.8,6.5,13.9c3,4.1,6.7,7.5,11.3,10.2c4.5,2.7,10,4,16.4,4c9.8,0,17.4-2.6,23-7.7
	c5.5-5.1,9.4-11.9,11.5-20.4h13.4c-2.8,12.5-8,22.1-15.6,28.9c-7.6,6.8-18.3,10.2-32.2,10.2c-8.6,0-16.1-1.5-22.4-4.6
	c-6.3-3-11.4-7.2-15.4-12.5c-4-5.3-6.9-11.5-8.8-18.5c-1.9-7-2.9-14.4-2.9-22.2c0-7.2,1-14.3,2.9-21.3c1.9-6.9,4.9-13.1,8.8-18.6
	c4-5.5,9.1-9.8,15.4-13.2c6.3-3.3,13.8-5,22.4-5c8.8,0,16.3,1.8,22.5,5.3c6.2,3.5,11.3,8.2,15.2,13.9c3.9,5.7,6.7,12.3,8.4,19.8
	s2.4,15,2.1,22.6H1496C1496,174.4,1496.6,179.4,1498,184.6z M1564.3,143.6c-1.6-4.7-3.9-8.8-6.9-12.4c-3-3.6-6.6-6.5-10.8-8.7
	c-4.3-2.2-9.1-3.3-14.5-3.3c-5.5,0-10.4,1.1-14.7,3.3c-4.3,2.2-7.9,5.1-10.8,8.7s-5.4,7.8-7.1,12.5c-1.8,4.8-2.9,9.6-3.5,14.6h71
	C1566.8,153.2,1565.9,148.3,1564.3,143.6z"/>
<path d="M1610.8,111.1v25.7h0.4c3.4-8.9,8.7-15.8,15.8-20.6c7.2-4.8,15.7-7,25.6-6.6V123c-6.1-0.3-11.6,0.5-16.6,2.4
	c-5,1.9-9.2,4.6-12.9,8.2c-3.6,3.5-6.4,7.8-8.4,12.6c-2,4.9-3,10.2-3,16.1v58.5h-13.4V111.1H1610.8z"/>
<path d="M56.7,393.9c0-6.7,1.1-12.2,3.2-16.7c2.1-4.5,5-8.1,8.6-10.8s7.9-4.7,12.8-6c4.9-1.2,10.1-1.8,15.6-1.8
	c8.8,0,15.9,0.8,21.3,2.6c5.4,1.7,9.6,4.1,12.5,7.2c3,3.1,5,6.8,6.1,11.2c1.1,4.3,1.6,9,1.6,14.1v60.2c0,5.4,0.2,9.6,0.7,12.5
	c0.5,3,1.5,6.2,2.9,9.6h-28.1c-1-1.8-1.7-3.8-2.2-5.8c-0.5-2.1-1-4.1-1.4-6.1h-0.4c-3.4,6-7.3,9.8-11.8,11.6
	c-4.5,1.8-10.2,2.7-17.3,2.7c-5.1,0-9.4-0.9-13-2.7c-3.5-1.8-6.4-4.2-8.5-7.3c-2.1-3.1-3.7-6.6-4.7-10.5c-1-3.9-1.5-7.8-1.5-11.6
	c0-5.4,0.6-10,1.7-13.9c1.1-3.9,2.9-7.2,5.2-10c2.3-2.8,5.3-5.1,8.9-6.9c3.6-1.8,8-3.5,13.1-4.9l16.6-4.5c4.4-1.1,7.4-2.7,9.1-4.7
	c1.7-2,2.6-4.9,2.6-8.7c0-4.4-1-7.8-3.1-10.3c-2.1-2.5-5.6-3.7-10.5-3.7c-4.5,0-7.9,1.3-10.2,4c-2.3,2.7-3.4,6.3-3.4,10.8v3.2H56.7
	V393.9z M103.9,422.5c-2.3,0.9-4.3,1.6-6.2,2c-6,1.3-10.2,3.4-12.8,6.4c-2.6,3-3.8,7-3.8,12.1c0,4.4,0.9,8.2,2.6,11.3
	c1.7,3.1,4.5,4.7,8.5,4.7c2,0,4-0.3,6.2-1s4.1-1.7,5.8-3.1c1.8-1.4,3.2-3.3,4.4-5.5c1.1-2.3,1.7-5,1.7-8.1v-22.5
	C108.3,420.3,106.2,421.5,103.9,422.5z"/>
<path d="M271.6,361.5v15.3h0.4c3-5.5,6.6-10,10.8-13.3c4.3-3.3,9.4-5,15.5-5c0.9,0,1.7,0,2.7,0.1c0.9,0.1,1.8,0.2,2.7,0.3v28.1
	c-1.6-0.1-3.1-0.2-4.6-0.3c-1.5-0.1-3-0.1-4.6-0.1c-2.6,0-5.1,0.4-7.7,1.1c-2.6,0.7-4.9,1.9-7,3.5c-2.1,1.6-3.8,3.8-5.1,6.4
	c-1.3,2.6-1.9,5.8-1.9,9.7v68.7h-29.3V361.5H271.6z"/>
<path d="M464.8,394.5c-0.4-2.7-1-5.1-1.9-7.3c-0.9-2.2-2.2-4-3.9-5.3c-1.7-1.3-4-2-6.8-2c-3.5,0-6.5,0.8-8.7,2.4
	c-2.3,1.6-4,4-5.1,7.2c-1.1,3.2-1.9,7.2-2.3,12.1c-0.4,4.9-0.6,10.7-0.6,17.3c0,7.1,0.2,13.1,0.6,18.2c0.4,5,1.2,9.2,2.3,12.4
	c1.1,3.3,2.7,5.6,4.8,7.1c2.1,1.5,4.7,2.2,8,2.2c5,0,8.6-2.1,10.8-6.4c2.3-4.3,3.4-11.1,3.4-20.4h28.1c0,15-3.4,26.5-10.1,34.3
	c-6.7,7.9-17.9,11.8-33.5,11.8c-7.4,0-13.8-0.9-19.2-2.7c-5.5-1.8-10-5-13.6-9.6c-3.6-4.6-6.3-10.8-8.2-18.5
	c-1.8-7.7-2.8-17.3-2.8-28.8c0-11.8,1.1-21.5,3.4-29.2c2.3-7.7,5.5-13.9,9.6-18.5c4.1-4.6,9-7.8,14.7-9.7c5.7-1.8,11.9-2.8,18.7-2.8
	c13.6,0,23.8,4,30.7,11.9c6.9,7.9,10.3,18.7,10.3,32.3h-28.1C465.3,400,465.2,397.2,464.8,394.5z"/>
<path d="M611.8,324.1v49.1h0.4c5.7-9.8,15-14.7,27.9-14.7c9.4,0,16.5,2.6,21.6,7.7c5,5.1,7.5,13.4,7.5,24.9v84.8h-29.3V397
	c0-6-1-10.1-3-12.4c-2-2.3-5.2-3.5-9.6-3.5c-10.3,0-15.5,6.3-15.5,18.9v75.9h-29.3V324.1H611.8z"/>
<path d="M816.6,322.4v25.1h-29.3v-25.1H816.6z M816.6,361.5v114.4h-29.3V361.5H816.6z"/>
<path d="M977.2,328.8v32.7h17v20h-17v61.9c0,4.5,0.7,7.8,2,9.7c1.3,1.9,4.1,2.9,8.4,2.9c1.1,0,2.3,0,3.4-0.1
	c1.1-0.1,2.2-0.2,3.2-0.3v20.4c-3.3,0-6.4,0.1-9.5,0.3c-3,0.2-6.3,0.3-9.7,0.3c-5.7,0-10.3-0.4-13.9-1.2s-6.4-2.3-8.3-4.7
	s-3.2-5.4-3.9-9.2c-0.7-3.8-1.1-8.6-1.1-14.5v-65.5H933v-20h14.9v-32.7H977.2z"/>
<path d="M1111,432.3c0,3.4,0.2,6.7,0.7,9.9c0.5,3.2,1.3,6,2.4,8.5c1.1,2.5,2.6,4.5,4.5,6c1.8,1.5,4.1,2.2,6.8,2.2
	c5,0,8.6-1.8,10.8-5.3c2.3-3.5,3.8-8.9,4.7-16.2h26.4c-0.6,13.3-4.1,23.5-10.6,30.4c-6.5,6.9-16.8,10.4-30.8,10.4
	c-10.6,0-18.9-1.8-24.9-5.3c-6-3.5-10.3-8.2-13.2-14c-2.8-5.8-4.6-12.3-5.2-19.6c-0.6-7.2-1-14.5-1-21.7c0-7.7,0.5-15,1.6-22.1
	c1.1-7.1,3.2-13.4,6.4-18.9s7.8-9.9,13.7-13.2c6-3.3,13.9-4.9,23.8-4.9c8.5,0,15.5,1.4,20.9,4.1c5.5,2.8,9.7,6.7,12.9,11.7
	c3.1,5,5.2,11.1,6.4,18.3c1.1,7.2,1.7,15.1,1.7,23.9v6.6h-58V432.3z M1140.1,394.2c-0.4-3.3-1.2-6.2-2.2-8.5
	c-1.1-2.3-2.6-4.1-4.5-5.3c-1.9-1.2-4.4-1.8-7.3-1.8c-3,0-5.4,0.7-7.3,2c-1.9,1.3-3.4,3.1-4.6,5.3c-1.1,2.2-1.9,4.6-2.4,7.3
	c-0.5,2.7-0.7,5.4-0.7,8.1v4.5h30C1140.8,401.4,1140.5,397.5,1140.1,394.2z"/>
<path d="M1302.1,394.5c-0.4-2.7-1-5.1-1.9-7.3c-0.9-2.2-2.2-4-3.9-5.3c-1.7-1.3-4-2-6.8-2c-3.5,0-6.5,0.8-8.7,2.4
	c-2.3,1.6-4,4-5.1,7.2c-1.1,3.2-1.9,7.2-2.3,12.1c-0.4,4.9-0.6,10.7-0.6,17.3c0,7.1,0.2,13.1,0.6,18.2c0.4,5,1.2,9.2,2.3,12.4
	c1.1,3.3,2.7,5.6,4.8,7.1c2.1,1.5,4.7,2.2,8,2.2c5,0,8.6-2.1,10.8-6.4c2.3-4.3,3.4-11.1,3.4-20.4h28.1c0,15-3.4,26.5-10.1,34.3
	c-6.7,7.9-17.9,11.8-33.5,11.8c-7.4,0-13.8-0.9-19.2-2.7c-5.5-1.8-10-5-13.6-9.6c-3.6-4.6-6.3-10.8-8.2-18.5
	c-1.8-7.7-2.8-17.3-2.8-28.8c0-11.8,1.1-21.5,3.4-29.2c2.3-7.7,5.5-13.9,9.6-18.5c4.1-4.6,9-7.8,14.7-9.7c5.7-1.8,11.9-2.8,18.7-2.8
	c13.6,0,23.8,4,30.7,11.9c6.9,7.9,10.3,18.7,10.3,32.3h-28.1C1302.6,400,1302.5,397.2,1302.1,394.5z"/>
<path d="M1462.3,328.8v32.7h17v20h-17v61.9c0,4.5,0.7,7.8,2,9.7c1.3,1.9,4.1,2.9,8.4,2.9c1.1,0,2.3,0,3.4-0.1
	c1.1-0.1,2.2-0.2,3.2-0.3v20.4c-3.3,0-6.4,0.1-9.5,0.3c-3,0.2-6.3,0.3-9.7,0.3c-5.7,0-10.3-0.4-13.9-1.2c-3.6-0.8-6.4-2.3-8.3-4.7
	c-1.9-2.3-3.2-5.4-3.9-9.2c-0.7-3.8-1.1-8.6-1.1-14.5v-65.5h-14.9v-20h14.9v-32.7H1462.3z"/>
<path d="M1594.5,442.3c0,5,1.3,9,3.9,12c2.6,3,6.4,4.6,11.4,4.6c4.5,0,8.1-1.1,10.8-3.4c2.7-2.3,4-5.7,4-10.2c0-3.7-1.1-6.5-3.2-8.4
	c-2.1-1.9-4.6-3.4-7.4-4.6l-20.6-7.4c-8.1-2.8-14.2-6.8-18.3-12c-4.1-5.2-6.2-11.8-6.2-19.9c0-4.7,0.8-9.1,2.3-13.3
	c1.6-4.2,4-7.8,7.4-10.9c3.4-3.1,7.8-5.6,13.1-7.4c5.3-1.8,11.7-2.8,19.2-2.8c13.3,0,23.2,2.8,29.6,8.5c6.4,5.7,9.6,13.7,9.6,24v4.7
	h-26.4c0-6-1-10.3-2.9-13.1c-1.9-2.8-5.3-4.1-10.1-4.1c-3.7,0-6.9,1-9.7,3.1c-2.8,2.1-4.1,5.1-4.1,9.2c0,2.8,0.9,5.4,2.7,7.7
	c1.8,2.3,5.1,4.2,10.1,5.7l17.6,6c9.2,3.1,15.7,7.2,19.6,12.2c3.8,5,5.7,11.9,5.7,20.5c0,6.1-1.1,11.4-3.2,15.8
	c-2.1,4.5-5.1,8.2-8.8,11.2c-3.8,3-8.2,5.1-13.4,6.4c-5.2,1.3-10.9,1.9-17.1,1.9c-8.2,0-15.1-0.8-20.5-2.3c-5.5-1.6-9.8-3.9-13-7
	c-3.2-3.1-5.4-6.9-6.7-11.4c-1.3-4.5-1.9-9.5-1.9-15v-4h26.4V442.3z"/>
</svg>
