<?xml version="1.0" encoding="utf-8"?>
<!-- Generator: Adobe Illustrator 19.2.0, SVG Export Plug-In . SVG Version: 6.00 Build 0)  -->
<svg version="1.1" id="Layer_1" xmlns="http://www.w3.org/2000/svg" xmlns:xlink="http://www.w3.org/1999/xlink" x="0px" y="0px"
	 viewBox="0 0 5000 5000" enable-background="new 0 0 5000 5000" xml:space="preserve">
<g>
	<path d="M513.809,4298.389l27.507-42.039c24.912,20.241,51.381,32.178,75.773,32.178c24.393,0,38.406-12.975,38.406-30.102v-0.52
		c0-19.721-21.279-28.545-53.976-42.557c-41-17.646-75.254-36.33-75.254-81.482v-1.039c0-49.305,39.444-80.444,90.824-80.444
		c30.621,0,63.318,10.899,89.268,29.583l-24.912,43.076c-20.76-14.012-43.596-24.393-65.394-24.393s-34.773,11.938-34.773,26.988
		v1.038c0,18.165,21.798,27.507,53.976,42.038c42.558,19.203,74.736,38.926,74.736,82.002v0.52
		c0,53.975-41.001,83.559-93.938,83.559C583.355,4336.795,545.468,4324.857,513.809,4298.389z"/>
	<path d="M816.9,3956.889h58.647v374.716H816.9V3956.889z"/>
	<path d="M981.418,4252.717v-2.595c0-59.166,39.444-88.229,97.571-88.229c25.95,0,44.634,4.671,63.318,10.898v-11.418
		c0-36.849-21.798-56.051-59.166-56.051c-26.469,0-48.267,8.303-66.432,16.607l-16.608-46.71
		c26.469-12.975,53.976-21.798,90.825-21.798c35.811,0,63.318,9.861,80.963,28.025c18.165,18.166,27.507,45.153,27.507,79.407
		v170.75h-57.608v-33.735c-16.089,23.355-40.482,38.926-76.292,38.926C1019.824,4336.795,981.418,4306.174,981.418,4252.717z
		 M1142.827,4239.223v-27.506c-13.494-5.709-31.14-9.861-50.862-9.861c-33.735,0-53.457,17.127-53.457,46.19v1.038
		c0,27.507,19.203,43.076,44.633,43.596C1116.876,4293.199,1142.827,4270.363,1142.827,4239.223z"/>
	<path d="M1291.777,4298.389l27.507-42.039c24.912,20.241,51.381,32.178,75.773,32.178c24.393,0,38.406-12.975,38.406-30.102v-0.52
		c0-19.721-21.279-28.545-53.976-42.557c-41-17.646-75.254-36.33-75.254-81.482v-1.039c0-49.305,39.444-80.444,90.824-80.444
		c30.621,0,63.318,10.899,89.268,29.583l-24.912,43.076c-20.76-14.012-43.596-24.393-65.394-24.393s-34.773,11.938-34.773,26.988
		v1.038c0,18.165,21.798,27.507,53.976,42.038c42.558,19.203,74.736,38.926,74.736,82.002v0.52
		c0,53.975-41.001,83.559-93.938,83.559C1361.323,4336.795,1323.436,4324.857,1291.777,4298.389z"/>
	<path d="M1591.754,3956.889h58.646v140.129c15.57-24.393,37.887-45.672,75.255-45.672c52.938,0,84.597,37.368,84.597,96.015
		v184.244h-58.647v-167.636c0-38.406-18.165-59.686-49.305-59.686c-30.621,0-51.9,22.836-51.9,60.723v166.599h-58.646V3956.889z"/>
	<path d="M1915.086,4253.755v-2.076c0-52.938,40.482-86.153,101.205-86.153c30.621,0,52.418,4.671,73.697,10.898v-19.202
		c0-48.267-28.026-73.698-74.735-73.698c-27.507,0-51.9,8.305-71.103,19.203l-9.342-21.279c24.912-11.937,50.862-20.76,82.002-20.76
		c30.621,0,55.014,8.305,72.141,25.95c16.089,15.052,24.912,38.925,24.912,69.026v175.94h-23.874v-42.558
		c-15.57,25.949-43.596,48.267-85.634,48.267C1959.201,4337.313,1915.086,4306.692,1915.086,4253.755z M2090.507,4237.146v-38.405
		c-19.722-6.228-44.115-11.418-74.735-11.418c-48.786,0-75.255,25.95-75.255,63.317v2.076c0,37.887,29.064,62.279,65.913,62.279
		C2052.621,4314.996,2090.507,4281.262,2090.507,4237.146z"/>
	<path d="M2244.129,4064.32h23.874v63.318c17.127-39.443,53.976-69.027,99.647-66.951v25.95h-2.076
		c-51.9,0-97.572,38.405-97.572,111.585v133.382h-23.874V4064.32z"/>
	<path d="M2447.572,4200.299v-3.115c0-81.482,52.419-138.572,117.293-138.572c37.887,0,62.799,17.127,83.04,36.85l-15.57,18.684
		c-17.127-17.127-38.406-32.697-68.508-32.697c-49.305,0-90.824,46.711-90.824,115.736v2.596
		c0,71.103,43.596,114.698,92.381,114.698c28.026-0.519,50.343-14.532,67.989-33.216l15.57,16.089
		c-19.722,21.798-46.191,39.963-84.597,39.963C2498.434,4337.313,2447.572,4281.781,2447.572,4200.299z"/>
	<path d="M2761.048,3956.889h23.874v153.623c15.051-28.545,40.482-51.9,83.04-51.9c56.052,0,90.825,38.926,90.825,100.167v172.826
		h-24.393v-166.079c0-53.976-25.431-85.115-70.583-85.115c-44.634,0-78.888,36.33-78.888,87.711v163.483h-23.874V3956.889z"/>
	<path d="M3090.607,3963.636h29.064v35.292h-29.064V3963.636z M3092.684,4064.32h24.393v267.284h-24.393V4064.32z"/>
	<path d="M3267.064,4271.4v-184.763h-34.253v-22.317h34.253v-82.001h24.393v82.001h76.292v22.317h-76.292v181.649
		c0,33.215,18.165,44.114,44.634,44.114c10.38,0,20.241-2.075,31.659-6.747v22.317c-10.899,5.19-22.317,7.266-35.292,7.266
		C3295.609,4335.237,3267.064,4316.035,3267.064,4271.4z"/>
	<path d="M3462.214,4199.779v-2.076c0-82.521,47.229-139.092,108.471-139.092c63.317,0,104.318,56.053,104.318,137.016v12.456
		h-187.877c3.114,67.989,45.153,106.395,92.381,106.395c32.178,0,55.014-13.493,74.217-32.696l15.051,16.607
		c-23.874,23.355-50.343,38.925-90.825,38.925C3515.152,4337.313,3462.214,4285.414,3462.214,4199.779z M3649.572,4186.285
		c-2.076-56.57-29.583-105.356-79.406-105.356c-44.634,0-79.407,42.558-83.04,105.356H3649.572z"/>
	<path d="M3776.203,4200.299v-3.115c0-81.482,52.419-138.572,117.293-138.572c37.887,0,62.799,17.127,83.04,36.85l-15.57,18.684
		c-17.127-17.127-38.406-32.697-68.508-32.697c-49.305,0-90.824,46.711-90.824,115.736v2.596
		c0,71.103,43.596,114.698,92.382,114.698c28.025-0.519,50.342-14.532,67.988-33.216l15.569,16.089
		c-19.722,21.798-46.19,39.963-84.596,39.963C3827.065,4337.313,3776.203,4281.781,3776.203,4200.299z"/>
	<path d="M4100.579,4271.4v-184.763h-34.254v-22.317h34.254v-82.001h24.393v82.001h76.293v22.317h-76.293v181.649
		c0,33.215,18.165,44.114,44.634,44.114c10.38,0,20.241-2.075,31.659-6.747v22.317c-10.899,5.19-22.317,7.266-35.292,7.266
		C4129.124,4335.237,4100.579,4316.035,4100.579,4271.4z"/>
	<path d="M4292.606,4298.389l15.051-18.684c25.431,22.316,52.419,33.734,80.964,33.734c32.696,0,58.128-19.722,58.128-49.824v-1.037
		c0-26.469-22.836-40.482-62.28-57.09c-44.114-18.165-78.368-34.773-78.368-75.255v-1.038c0-41,33.216-69.545,79.926-69.545
		c31.14,0,61.241,12.455,82.521,29.063l-14.014,19.202c-20.76-15.569-44.634-25.43-69.545-25.43
		c-32.178,0-54.495,18.684-54.495,44.114v1.038c0,25.949,24.912,38.406,63.837,55.014c46.19,20.24,76.812,37.887,76.812,78.369
		v0.519c0,45.152-37.368,74.735-84.077,74.735C4353.848,4336.275,4319.075,4322.263,4292.606,4298.389z"/>
</g>
<path d="M1001.192,3680.827L2153.004,756.026h170.867L1167.615,3680.827H1001.192z"/>
<path d="M1633.135,3680.827L2784.947,756.026h57.034L1685.726,3680.827H1633.135z"/>
<path d="M3941.217,3680.827L2784.962,756.026h57.034l1151.812,2924.801H3941.217z"/>
</svg>
