<svg id="Layer_1" data-name="Layer 1" xmlns="http://www.w3.org/2000/svg" viewBox="0 0 5000 5000"><title>slasharchitects-logo-full-02</title><path d="M513.81,4298.39l27.51-42c24.91,20.24,51.38,32.18,75.77,32.18s38.41-13,38.41-30.1v-0.52c0-19.72-21.28-28.54-54-42.56-41-17.65-75.25-36.33-75.25-81.48v-1c0-49.3,39.44-80.44,90.82-80.44,30.62,0,63.32,10.9,89.27,29.58L681.45,4125c-20.76-14-43.6-24.39-65.39-24.39s-34.77,11.94-34.77,27v1c0,18.17,21.8,27.51,54,42,42.56,19.2,74.74,38.93,74.74,82v0.52c0,54-41,83.56-93.94,83.56C583.35,4336.79,545.47,4324.86,513.81,4298.39Z"/><path d="M816.9,3956.89h58.65V4331.6H816.9V3956.89Z"/><path d="M981.42,4252.72v-2.59c0-59.17,39.44-88.23,97.57-88.23,26,0,44.63,4.67,63.32,10.9v-11.42c0-36.85-21.8-56.05-59.17-56.05-26.47,0-48.27,8.3-66.43,16.61l-16.61-46.71c26.47-13,54-21.8,90.82-21.8,35.81,0,63.32,9.86,81,28,18.17,18.17,27.51,45.15,27.51,79.41V4331.6h-57.61v-33.74c-16.09,23.36-40.48,38.93-76.29,38.93C1019.82,4336.79,981.42,4306.17,981.42,4252.72Zm161.41-13.49v-27.51a132.36,132.36,0,0,0-50.86-9.86c-33.73,0-53.46,17.13-53.46,46.19v1c0,27.51,19.2,43.08,44.63,43.6C1116.88,4293.2,1142.83,4270.36,1142.83,4239.22Z"/><path d="M1291.78,4298.39l27.51-42c24.91,20.24,51.38,32.18,75.77,32.18s38.41-13,38.41-30.1v-0.52c0-19.72-21.28-28.54-54-42.56-41-17.65-75.25-36.33-75.25-81.48v-1c0-49.3,39.44-80.44,90.82-80.44,30.62,0,63.32,10.9,89.27,29.58L1459.41,4125c-20.76-14-43.6-24.39-65.39-24.39s-34.77,11.94-34.77,27v1c0,18.17,21.8,27.51,54,42,42.56,19.2,74.74,38.93,74.74,82v0.52c0,54-41,83.56-93.94,83.56C1361.32,4336.79,1323.44,4324.86,1291.78,4298.39Z"/><path d="M1591.75,3956.89h58.65V4097c15.57-24.39,37.89-45.67,75.25-45.67,52.94,0,84.6,37.37,84.6,96V4331.6H1751.6V4164c0-38.41-18.17-59.69-49.3-59.69-30.62,0-51.9,22.84-51.9,60.72v166.6h-58.65V3956.89Z"/><path d="M1915.09,4253.75v-2.08c0-52.94,40.48-86.15,101.2-86.15,30.62,0,52.42,4.67,73.7,10.9v-19.2c0-48.27-28-73.7-74.74-73.7a144.52,144.52,0,0,0-71.1,19.2l-9.34-21.28c24.91-11.94,50.86-20.76,82-20.76,30.62,0,55,8.3,72.14,26,16.09,15.05,24.91,38.92,24.91,69V4331.6H2090V4289c-15.57,25.95-43.6,48.27-85.63,48.27C1959.2,4337.31,1915.09,4306.69,1915.09,4253.75Zm175.42-16.61v-38.41a243.36,243.36,0,0,0-74.74-11.42c-48.79,0-75.25,26-75.25,63.32v2.08c0,37.89,29.06,62.28,65.91,62.28C2052.62,4315,2090.51,4281.26,2090.51,4237.15Z"/><path d="M2244.13,4064.32H2268v63.32c17.13-39.44,54-69,99.65-67v26h-2.08c-51.9,0-97.57,38.41-97.57,111.58V4331.6h-23.87V4064.32Z"/><path d="M2447.57,4200.3v-3.12c0-81.48,52.42-138.57,117.29-138.57,37.89,0,62.8,17.13,83,36.85l-15.57,18.68c-17.13-17.13-38.41-32.7-68.51-32.7-49.3,0-90.82,46.71-90.82,115.74v2.6c0,71.1,43.6,114.7,92.38,114.7,28-.52,50.34-14.53,68-33.22l15.57,16.09c-19.72,21.8-46.19,40-84.6,40C2498.43,4337.31,2447.57,4281.78,2447.57,4200.3Z"/><path d="M2761,3956.89h23.87v153.62c15.05-28.54,40.48-51.9,83-51.9,56.05,0,90.82,38.93,90.82,100.17V4331.6h-24.39V4165.53c0-54-25.43-85.12-70.58-85.12-44.63,0-78.89,36.33-78.89,87.71V4331.6H2761V3956.89Z"/><path d="M3090.61,3963.64h29.06v35.29h-29.06v-35.29Zm2.08,100.68h24.39V4331.6h-24.39V4064.32Z"/><path d="M3267.06,4271.4V4086.64h-34.25v-22.32h34.25v-82h24.39v82h76.29v22.32h-76.29v181.65c0,33.21,18.17,44.11,44.63,44.11,10.38,0,20.24-2.08,31.66-6.75V4328c-10.9,5.19-22.32,7.27-35.29,7.27C3295.61,4335.24,3267.06,4316,3267.06,4271.4Z"/><path d="M3462.21,4199.78v-2.08c0-82.52,47.23-139.09,108.47-139.09,63.32,0,104.32,56.05,104.32,137v12.46H3487.13c3.11,68,45.15,106.39,92.38,106.39,32.18,0,55-13.49,74.22-32.7l15.05,16.61c-23.87,23.36-50.34,38.92-90.82,38.92C3515.15,4337.31,3462.21,4285.41,3462.21,4199.78Zm187.36-13.49c-2.08-56.57-29.58-105.36-79.41-105.36-44.63,0-79.41,42.56-83,105.36h162.45Z"/><path d="M3776.2,4200.3v-3.12c0-81.48,52.42-138.57,117.29-138.57,37.89,0,62.8,17.13,83,36.85L3961,4114.14c-17.13-17.13-38.41-32.7-68.51-32.7-49.3,0-90.82,46.71-90.82,115.74v2.6c0,71.1,43.6,114.7,92.38,114.7,28-.52,50.34-14.53,68-33.22l15.57,16.09c-19.72,21.8-46.19,40-84.6,40C3827.06,4337.31,3776.2,4281.78,3776.2,4200.3Z"/><path d="M4100.58,4271.4V4086.64h-34.25v-22.32h34.25v-82H4125v82h76.29v22.32H4125v181.65c0,33.21,18.17,44.11,44.63,44.11,10.38,0,20.24-2.08,31.66-6.75V4328c-10.9,5.19-22.32,7.27-35.29,7.27C4129.12,4335.24,4100.58,4316,4100.58,4271.4Z"/><path d="M4292.61,4298.39l15.05-18.68c25.43,22.32,52.42,33.73,81,33.73,32.7,0,58.13-19.72,58.13-49.82v-1c0-26.47-22.84-40.48-62.28-57.09-44.11-18.17-78.37-34.77-78.37-75.25v-1c0-41,33.22-69.54,79.93-69.54,31.14,0,61.24,12.46,82.52,29.06l-14,19.2c-20.76-15.57-44.63-25.43-69.54-25.43-32.18,0-54.5,18.68-54.5,44.11v1c0,25.95,24.91,38.41,63.84,55,46.19,20.24,76.81,37.89,76.81,78.37v0.52c0,45.15-37.37,74.74-84.08,74.74C4353.85,4336.28,4319.07,4322.26,4292.61,4298.39Z"/><path d="M1001.19,3680.83L2153,756h170.87L1167.62,3680.83H1001.19Z"/><path d="M1633.13,3680.83L2784.95,756h57L1685.73,3680.83h-52.59Z"/><path d="M3941.22,3680.83L2785,756h57l1151.81,2924.8h-52.59Z"/></svg>